<svg id="Layer_2" data-name="Layer 2" xmlns="http://www.w3.org/2000/svg" xmlns:xlink="http://www.w3.org/1999/xlink" viewBox="0 0 1000 1000"><defs><style>.cls-1{fill:url(#linear-gradient);}</style><linearGradient id="linear-gradient" x1="-43.65" y1="765.83" x2="886.95" y2="-51.39" gradientUnits="userSpaceOnUse"><stop offset="0.13" stop-color="#2a84c6"/><stop offset="0.52" stop-color="#29a7df"/><stop offset="0.75" stop-color="#3abce5"/><stop offset="0.91" stop-color="#42c5e7"/></linearGradient></defs><path class="cls-1" d="M187.42,21.08l689.93,2.67a48.44,48.44,0,0,1,48.25,48l.53,52.39A48.44,48.44,0,0,1,877.69,173H311.54a48.43,48.43,0,0,0-47.86,41L247.13,320.43A48.44,48.44,0,0,0,295,376.31H622.18a48.44,48.44,0,0,1,48.44,48.44V477a48.44,48.44,0,0,1-48.44,48.44h-298a48.44,48.44,0,0,0-45.16,66L396.71,894.81A48.45,48.45,0,0,1,368,957.87L317.84,976a48.45,48.45,0,0,1-61.74-28.29l-174-456.2A125.75,125.75,0,0,1,75.76,425L139.52,61.15A48.44,48.44,0,0,1,187.42,21.08Z"/></svg>